<?xml version="1.0" standalone="no"?>
<!DOCTYPE svg PUBLIC "-//W3C//DTD SVG 20010904//EN"
 "http://www.w3.org/TR/2001/REC-SVG-20010904/DTD/svg10.dtd">
<svg version="1.0" xmlns="http://www.w3.org/2000/svg"
 width="274.000000pt" height="257.000000pt" viewBox="0 0 274.000000 257.000000"
 preserveAspectRatio="xMidYMid meet">

<g transform="translate(0.000000,257.000000) scale(0.100000,-0.100000)"
fill="#000000" stroke="none">
<path d="M785 2110 c-3 -6 1 -7 9 -4 18 7 21 14 7 14 -6 0 -13 -4 -16 -10z"/>
<path d="M630 1936 l0 -154 98 -22 c53 -12 103 -23 110 -25 9 -3 12 32 12 155
0 88 -2 160 -4 160 -2 0 -48 9 -101 20 -53 11 -101 20 -106 20 -5 0 -9 -69 -9
-154z"/>
<path d="M953 2062 c-23 -9 -44 -19 -47 -22 -2 -3 -7 -71 -10 -150 l-5 -145
55 58 54 58 0 109 c0 61 -1 110 -2 109 -2 0 -22 -8 -45 -17z"/>
<path d="M2130 1678 c-135 -39 -357 -102 -495 -142 l-250 -71 -3 -62 c-2 -35
-1 -63 2 -63 3 0 113 30 243 66 305 85 384 107 514 142 l106 29 6 -165 c4 -91
7 -238 7 -327 l0 -161 -287 -83 c-159 -46 -344 -99 -413 -120 l-125 -37 -3
-67 c-2 -37 -1 -67 1 -67 3 0 83 23 178 50 180 53 555 160 647 186 l52 15 0
372 0 373 75 43 c41 23 75 44 75 46 0 1 -24 18 -52 36 -29 18 -55 34 -57 36
-2 1 7 11 20 22 13 11 20 20 14 20 -5 -1 -120 -33 -255 -71z"/>
<path d="M300 1651 c0 -6 4 -13 10 -16 6 -3 7 1 4 9 -7 18 -14 21 -14 7z"/>
<path d="M334 1635 c1 -8 6 -18 11 -22 4 -4 5 -2 0 6 -5 9 -3 12 6 9 8 -3 13
-10 12 -16 -2 -6 4 -9 12 -6 11 5 13 2 9 -10 -3 -9 -10 -16 -14 -16 -5 0 -5
-12 -1 -27 7 -25 14 -29 72 -39 35 -6 143 -26 239 -43 186 -34 645 -112 670
-115 12 -1 15 11 15 53 l0 55 -75 13 c-173 30 -427 76 -595 108 -99 19 -204
37 -234 41 l-54 7 5 -27 c3 -14 1 -26 -3 -26 -5 0 -9 9 -9 20 0 12 -7 20 -17
21 -16 0 -15 2 2 10 19 9 18 9 -2 5 -13 -2 -26 0 -29 5 -8 14 -22 10 -20 -6z
m66 -90 c0 -8 -2 -15 -4 -15 -2 0 -6 7 -10 15 -3 8 -1 15 4 15 6 0 10 -7 10
-15z"/>
<path d="M300 811 l0 -111 50 0 c60 0 62 5 58 130 l-3 85 -52 3 -53 3 0 -110z"/>
<path d="M582 813 l3 -108 45 0 c37 0 45 4 49 20 5 27 19 35 62 35 43 0 68 24
76 73 4 29 1 40 -20 61 -24 24 -32 26 -122 26 l-96 0 3 -107z m133 27 c0 -24
-5 -45 -11 -47 -16 -5 -22 16 -16 60 6 52 27 42 27 -13z"/>
<path d="M875 887 c-14 -11 -19 -30 -21 -81 -3 -62 -1 -67 23 -83 31 -20 117
-23 151 -5 23 13 32 65 13 77 -5 3 -7 20 -4 39 4 27 1 36 -18 50 -29 20 -118
21 -144 3z m85 -42 c0 -26 -14 -33 -25 -15 -9 14 1 40 15 40 5 0 10 -11 10
-25z m8 -78 c2 -19 -1 -27 -12 -27 -11 0 -16 10 -16 31 0 38 24 35 28 -4z"/>
<path d="M1092 858 c2 -28 8 -34 31 -36 15 -2 27 -5 27 -7 0 -2 -9 -25 -21
-52 l-20 -48 22 -18 c12 -10 29 -17 38 -15 20 4 83 131 85 172 l1 31 -83 3
-83 3 3 -33z"/>
<path d="M457 763 c-4 -3 -7 -19 -7 -34 0 -28 23 -39 63 -31 27 6 23 58 -5 66
-30 8 -43 7 -51 -1z"/>
<path d="M100 520 c0 -7 438 -10 1295 -10 857 0 1295 3 1295 10 0 7 -438 10
-1295 10 -857 0 -1295 -3 -1295 -10z"/>
<path d="M113 469 c25 -15 25 -163 0 -178 -14 -8 -5 -10 37 -10 30 1 47 3 38
6 -15 4 -18 17 -18 88 0 69 3 86 18 94 13 8 4 10 -38 10 -42 0 -51 -2 -37 -10z"/>
<path d="M602 469 c2 -6 8 -10 13 -10 5 0 11 4 13 10 2 6 -4 11 -13 11 -9 0
-15 -5 -13 -11z"/>
<path d="M888 469 c7 -8 12 -43 12 -95 0 -70 -3 -83 -17 -87 -10 -3 7 -5 37
-6 42 0 51 2 38 10 -12 6 -18 22 -18 44 0 34 1 35 38 35 63 0 93 48 52 85 -24
22 -163 36 -142 14z m110 -21 c18 -18 14 -46 -7 -58 -38 -20 -51 -13 -51 30 0
35 3 40 23 40 13 0 28 -5 35 -12z"/>
<path d="M1270 471 c0 -11 26 -22 34 -14 12 12 5 23 -14 23 -11 0 -20 -4 -20
-9z"/>
<path d="M2392 464 c-28 -19 -28 -38 -1 -63 l21 -19 -21 -21 c-26 -26 -27 -43
-3 -64 25 -23 78 -21 102 3 26 26 25 36 -6 67 -25 25 -25 25 -5 40 26 17 27
41 4 59 -24 18 -64 17 -91 -2z m62 0 c21 -8 21 -53 0 -61 -9 -3 -25 3 -37 16
-22 22 -22 22 -3 37 23 16 20 16 40 8z m3 -116 c30 -28 29 -46 -2 -54 -43 -11
-73 34 -43 64 16 16 18 16 45 -10z"/>
<path d="M2563 468 c-25 -32 -26 -40 -5 -29 29 15 92 14 92 -1 0 -7 -14 -44
-30 -82 -28 -65 -32 -92 -11 -70 15 15 80 178 75 186 -8 13 -111 9 -121 -4z"/>
<path d="M214 408 c-3 -4 -1 -8 5 -8 5 0 24 -27 43 -60 18 -33 35 -60 38 -60
3 0 20 29 38 65 24 50 28 65 17 65 -8 0 -15 -5 -15 -10 0 -6 -7 -27 -16 -48
l-16 -37 -19 38 c-11 21 -17 41 -15 46 3 5 -8 11 -25 13 -16 3 -32 1 -35 -4z"/>
<path d="M445 411 c-75 -32 -55 -131 27 -131 33 0 78 39 78 68 0 45 -61 81
-105 63z m65 -46 c13 -39 5 -62 -23 -71 -42 -13 -76 66 -42 99 22 23 53 9 65
-28z"/>
<path d="M596 411 c-14 -5 -16 -10 -8 -15 16 -9 15 -89 0 -104 -9 -9 -3 -12
28 -11 21 0 33 3 27 6 -9 3 -13 27 -13 69 0 66 -1 68 -34 55z"/>
<path d="M686 411 c-14 -5 -16 -10 -8 -15 16 -9 15 -89 0 -104 -9 -9 -3 -12
28 -11 21 0 33 3 27 6 -8 3 -13 24 -13 54 0 48 1 49 30 49 17 0 30 4 30 9 0
17 -19 22 -40 11 -13 -7 -20 -7 -20 0 0 11 -7 12 -34 1z"/>
<path d="M1079 407 c6 -6 11 -32 11 -57 0 -25 5 -51 12 -58 15 -15 55 -16 64
-1 5 8 9 8 14 -1 4 -7 17 -9 35 -4 23 6 25 8 11 16 -11 6 -16 23 -16 58 0 48
-1 50 -27 50 -19 0 -24 -3 -15 -9 9 -5 12 -24 10 -52 -3 -39 -6 -44 -28 -44
-23 0 -25 4 -28 51 -3 46 -6 52 -28 57 -18 3 -22 1 -15 -6z"/>
<path d="M1277 412 c-9 -2 -14 -8 -11 -14 16 -26 15 -85 -1 -102 -15 -15 -13
-16 27 -15 24 0 37 3 31 6 -9 3 -13 26 -13 63 0 62 -4 69 -33 62z"/>
<path d="M1366 401 c-22 -24 -14 -42 31 -66 20 -11 37 -24 37 -30 2 -17 -40
-17 -57 -1 -21 21 -27 20 -27 -4 0 -17 7 -20 43 -20 77 0 92 47 26 80 -22 12
-39 26 -37 32 7 21 26 20 47 -1 l21 -21 0 23 c0 18 -6 22 -34 24 -22 2 -39 -3
-50 -16z"/>
<path d="M1506 402 c-24 -28 -20 -40 24 -62 42 -21 54 -50 20 -50 -10 0 -28
10 -40 22 l-20 22 0 -27 c0 -25 3 -27 43 -27 77 0 94 51 27 77 -27 11 -40 22
-38 32 5 20 38 16 56 -7 11 -14 12 -13 12 9 0 20 -5 24 -34 26 -22 2 -39 -3
-50 -15z"/>
<path d="M1653 410 c-26 -10 -31 -40 -8 -40 8 0 15 7 15 15 0 9 9 15 25 15 35
0 32 -25 -6 -40 -46 -20 -61 -38 -49 -61 11 -20 54 -26 65 -9 4 6 13 5 25 -3
16 -10 23 -8 37 7 10 10 13 16 6 12 -14 -8 -28 35 -19 59 7 19 -27 55 -51 54
-10 0 -28 -4 -40 -9z m55 -82 c-4 -31 -48 -39 -48 -10 0 20 12 30 38 31 8 1
12 -8 10 -21z"/>
<path d="M1796 411 c-14 -5 -16 -10 -8 -15 19 -12 15 -93 -5 -105 -14 -8 -8
-10 27 -10 25 0 39 3 33 6 -19 7 -17 99 2 107 31 12 45 -5 45 -54 0 -29 -5
-50 -12 -53 -7 -3 5 -6 27 -6 30 -1 36 2 27 11 -7 7 -12 33 -12 60 0 56 -21
75 -64 58 -17 -6 -26 -6 -26 0 0 11 -7 12 -34 1z"/>
<path d="M1986 399 c-69 -55 9 -154 82 -103 12 8 22 20 22 26 0 6 -8 4 -18 -5
-24 -22 -45 -21 -65 1 -28 31 -19 82 15 82 12 0 26 -7 33 -17 11 -15 35 -11
35 6 0 9 -45 31 -64 31 -7 0 -25 -9 -40 -21z"/>
<path d="M2155 408 c-28 -16 -35 -28 -35 -65 0 -55 76 -86 113 -45 24 27 21
35 -7 17 -19 -13 -28 -14 -50 -4 -14 7 -26 20 -26 31 0 15 8 18 50 18 36 0 50
4 50 14 0 31 -62 53 -95 34z m50 -18 c8 -13 -20 -24 -41 -16 -20 8 -9 26 16
26 10 0 22 -5 25 -10z"/>
<path d="M100 215 c0 -13 146 -15 1290 -13 852 2 1290 6 1290 13 0 7 -438 11
-1290 13 -1144 2 -1290 0 -1290 -13z"/>
</g>
</svg>
